# xmcd
#
# Track frame offsets:
#	183
#	12020
#	22733
#	34283
#	44508
#	53920
#	64058
#	75433
#	86245
#	96595
#	108895
#	120958
#	136008
#	149108
#	161358
#	170595
#	180258
#	191908
#	201970
#	213658
#
# Disc length: 2997 seconds
#
# Revision: 2
# Processed by: cddbd v1.5.2PL0 Copyright (c) Steve Scherf et al.
# Submitted via: EasyCDDAExtractor 16.0.6.1
#
DISCID=130bb314
DTITLE=Various Artist - C-017 The World Of Classic Country
DYEAR=1992
DGENRE=Country
TTITLE0=I Walk The Line
TTITLE1=King Of The Road
TTITLE2=The Window Up Above
TTITLE3=Blue Suede Shoes
TTITLE4=The Girl Most Likely
TTITLE5=Slipping Around
TTITLE6=All For The Love Of A Girl
TTITLE7=Am I That Easy To Forget ?
TTITLE8=A-11
TTITLE9=Roll Truck Roll
TTITLE10=Give My Love To Rose
TTITLE11=The Deck Of Cards
TTITLE12=The Auctioneer
TTITLE13=Don't Let The Stars Get In Your Eyes
TTITLE14=Sally Let Your Bangs Hang Down
TTITLE15=Poor Man's Riches
TTITLE16=Fancy Pants
TTITLE17=Six Days On The Road
TTITLE18=Little Green Apples
TTITLE19=Big River
EXTD=
EXTT0=
EXTT1=
EXTT2=
EXTT3=
EXTT4=
EXTT5=
EXTT6=
EXTT7=
EXTT8=
EXTT9=
EXTT10=
EXTT11=
EXTT12=
EXTT13=
EXTT14=
EXTT15=
EXTT16=
EXTT17=
EXTT18=
EXTT19=
PLAYORDER=
